<svg xmlns="http://www.w3.org/2000/svg" viewBox="0 0 500 500"><g id="freepik--background-complete--inject-2"><rect y="382.4" width="500" height="0.25" style="fill:#ebebeb"></rect><rect x="372.33" y="398.49" width="77.57" height="0.25" style="fill:#ebebeb"></rect><rect x="278" y="394.99" width="55.33" height="0.25" style="fill:#ebebeb"></rect><rect x="356.76" y="389.21" width="59.02" height="0.25" style="fill:#ebebeb"></rect><rect x="52.46" y="390.89" width="12.69" height="0.25" style="fill:#ebebeb"></rect><rect x="74.06" y="390.89" width="71.61" height="0.25" style="fill:#ebebeb"></rect><rect x="173.16" y="395.11" width="46.84" height="0.25" style="fill:#ebebeb"></rect><path d="M237,337.8H43.91a5.71,5.71,0,0,1-5.7-5.71V60.66A5.71,5.71,0,0,1,43.91,55H237a5.71,5.71,0,0,1,5.71,5.71V332.09A5.71,5.71,0,0,1,237,337.8ZM43.91,55.2a5.46,5.46,0,0,0-5.45,5.46V332.09a5.46,5.46,0,0,0,5.45,5.46H237a5.47,5.47,0,0,0,5.46-5.46V60.66A5.47,5.47,0,0,0,237,55.2Z" style="fill:#ebebeb"></path><path d="M453.31,337.8H260.21a5.72,5.72,0,0,1-5.71-5.71V60.66A5.72,5.72,0,0,1,260.21,55h193.1A5.71,5.71,0,0,1,459,60.66V332.09A5.71,5.71,0,0,1,453.31,337.8ZM260.21,55.2a5.47,5.47,0,0,0-5.46,5.46V332.09a5.47,5.47,0,0,0,5.46,5.46h193.1a5.47,5.47,0,0,0,5.46-5.46V60.66a5.47,5.47,0,0,0-5.46-5.46Z" style="fill:#ebebeb"></path><rect x="56.34" y="96.78" width="132.59" height="216.38" style="fill:#e6e6e6"></rect><rect x="58.23" y="96.78" width="134.75" height="216.38" style="fill:#f0f0f0"></rect><rect x="56.34" y="313.16" width="132.59" height="6.13" style="fill:#e6e6e6"></rect><rect x="64.97" y="313.16" width="134.75" height="6.13" style="fill:#f0f0f0"></rect><rect x="23.08" y="143.26" width="205.05" height="123.42" transform="translate(330.57 79.36) rotate(90)" style="fill:#fafafa"></rect><polygon points="91.72 307.49 107.49 102.44 132.09 102.44 116.32 307.49 91.72 307.49" style="fill:#fff"></polygon><path d="M66.52,301.85a.4.4,0,0,1-.41-.4V106.13a.41.41,0,1,1,.81,0V301.45A.4.4,0,0,1,66.52,301.85Z" style="fill:#f0f0f0"></path><polygon points="121.61 307.49 137.37 102.44 146.96 102.44 131.2 307.49 121.61 307.49" style="fill:#fff"></polygon><rect x="84.43" y="204.61" width="205.05" height="0.72" transform="translate(391.92 18.01) rotate(90)" style="fill:#e6e6e6"></rect><polygon points="194.32 110.98 61.73 110.98 61.2 104.64 193.8 104.64 194.32 110.98" style="fill:#ebebeb;opacity:0.6000000000000001"></polygon><polygon points="194.32 121.38 61.73 121.38 61.2 115.04 193.8 115.04 194.32 121.38" style="fill:#ebebeb;opacity:0.6000000000000001"></polygon><polygon points="194.32 131.77 61.73 131.77 61.2 125.43 193.8 125.43 194.32 131.77" style="fill:#ebebeb;opacity:0.6000000000000001"></polygon><polygon points="194.32 142.17 61.73 142.17 61.2 135.83 193.8 135.83 194.32 142.17" style="fill:#ebebeb;opacity:0.6000000000000001"></polygon><polygon points="194.32 152.56 61.73 152.56 61.2 146.22 193.8 146.22 194.32 152.56" style="fill:#ebebeb;opacity:0.6000000000000001"></polygon><polygon points="194.32 162.96 61.73 162.96 61.2 156.62 193.8 156.62 194.32 162.96" style="fill:#ebebeb;opacity:0.6000000000000001"></polygon><rect x="273.75" y="96.78" width="127.06" height="285.62" style="fill:#f0f0f0"></rect><rect x="276.44" y="96.78" width="124.38" height="285.62" style="fill:#f5f5f5"></rect><rect x="202.3" y="184.98" width="272.66" height="109.22" transform="translate(578.21 -99.04) rotate(90)" style="fill:#f0f0f0"></rect><path d="M294.75,154h0a29.78,29.78,0,0,1,29.78-29.78h28.2A29.77,29.77,0,0,1,382.5,154H294.75Z" style="fill:#fafafa"></path><rect x="306.06" y="282.52" width="65.14" height="87.75" transform="translate(665.03 -12.23) rotate(90)" style="fill:#f5f5f5"></rect><rect x="294.75" y="172.33" width="38.71" height="113.09" transform="translate(628.2 457.76) rotate(180)" style="fill:#f5f5f5"></rect><rect x="343.8" y="172.33" width="38.71" height="113.09" transform="translate(726.3 457.76) rotate(180)" style="fill:#f5f5f5"></rect><path d="M368.46,228.37h15.86a2.46,2.46,0,0,0,2.46-2.46h0a2.47,2.47,0,0,0-2.46-2.46H368.46a2.46,2.46,0,0,0-2.45,2.46h0A2.46,2.46,0,0,0,368.46,228.37Z" style="fill:#e0e0e0"></path><rect x="255.92" y="238.61" width="272.66" height="1.97" transform="translate(631.84 -152.66) rotate(90)" style="fill:#f0f0f0"></rect><polygon points="457.21 235.1 411.96 235.1 415.97 182.15 453.2 182.15 457.21 235.1" style="fill:#ebebeb"></polygon><polygon points="447.28 235.1 439.5 235.1 437.85 182.15 445.03 182.15 447.28 235.1" style="fill:#f5f5f5"></polygon><rect x="432.32" y="235.1" width="4.53" height="147.3" style="fill:#f0f0f0"></rect><rect x="430.36" y="301.06" width="8.45" height="8.45" rx="2" style="fill:#f0f0f0"></rect><rect x="430.36" y="314.6" width="8.45" height="8.45" rx="2" style="fill:#f0f0f0"></rect><path d="M441.75,382.4H427.42a3.06,3.06,0,0,1,3.05-3.06h8.22a3.06,3.06,0,0,1,3.06,3.06Z" style="fill:#f0f0f0"></path><rect x="432.32" y="235.1" width="4.53" height="2.77" style="fill:#e0e0e0"></rect><polygon points="260.87 235.1 215.62 235.1 219.63 182.15 256.86 182.15 260.87 235.1" style="fill:#ebebeb"></polygon><polygon points="250.94 235.1 243.16 235.1 241.51 182.15 248.69 182.15 250.94 235.1" style="fill:#f5f5f5"></polygon><rect x="235.98" y="235.1" width="4.53" height="147.3" style="fill:#f0f0f0"></rect><rect x="234.02" y="301.06" width="8.45" height="8.45" rx="2" style="fill:#f0f0f0"></rect><rect x="234.02" y="314.6" width="8.45" height="8.45" rx="2" style="fill:#f0f0f0"></rect><path d="M245.41,382.4H231.08a3.06,3.06,0,0,1,3-3.06h8.23a3.06,3.06,0,0,1,3,3.06Z" style="fill:#f0f0f0"></path><rect x="235.98" y="235.1" width="4.53" height="2.77" style="fill:#e0e0e0"></rect></g><g id="freepik--Shadow--inject-2"><ellipse id="freepik--path--inject-2" cx="250" cy="416.24" rx="193.89" ry="11.32" style="fill:#f5f5f5"></ellipse></g><g id="freepik--Responsive--inject-2"><polygon points="286.61 103.8 284.73 161.54 330 158.41 286.61 103.8" style="fill:#0B5FFF;opacity:0.1"></polygon><polygon points="254.5 281.43 255.67 238.72 86.09 241.02 254.5 281.43" style="fill:#0B5FFF;opacity:0.1"></polygon><path d="M83.3,108.95h205a0,0,0,0,1,0,0v129a3.14,3.14,0,0,1-3.14,3.14H86.44a3.14,3.14,0,0,1-3.14-3.14v-129a0,0,0,0,1,0,0Z" style="fill:#0B5FFF"></path><path d="M83.3,108.95h205a0,0,0,0,1,0,0v129a3.14,3.14,0,0,1-3.14,3.14H86.44a3.14,3.14,0,0,1-3.14-3.14v-129a0,0,0,0,1,0,0Z" style="fill:#fff;opacity:0.7000000000000001"></path><rect x="101.07" y="117.57" width="169.43" height="51.69" rx="2.83" style="fill:#fff;opacity:0.9"></rect><rect x="101.07" y="177.18" width="51.31" height="15.08" rx="2.83" style="fill:#0B5FFF;opacity:0.7000000000000001"></rect><rect x="160.13" y="177.18" width="51.31" height="15.08" rx="2.83" style="fill:#0B5FFF;opacity:0.7000000000000001"></rect><rect x="219.18" y="177.18" width="51.31" height="15.08" rx="2.83" style="fill:#0B5FFF;opacity:0.7000000000000001"></rect><path d="M103.9,198.36h45.65a2.83,2.83,0,0,1,2.83,2.83V241a0,0,0,0,1,0,0H101.07a0,0,0,0,1,0,0V201.19A2.83,2.83,0,0,1,103.9,198.36Z" style="fill:#0B5FFF;opacity:0.30000000000000004"></path><path d="M163,198.36h45.65a2.83,2.83,0,0,1,2.83,2.83V241a0,0,0,0,1,0,0H160.13a0,0,0,0,1,0,0V201.19A2.83,2.83,0,0,1,163,198.36Z" style="fill:#0B5FFF;opacity:0.30000000000000004"></path><path d="M222,198.36h45.65a2.83,2.83,0,0,1,2.83,2.83V241a0,0,0,0,1,0,0H219.18a0,0,0,0,1,0,0V201.19A2.83,2.83,0,0,1,222,198.36Z" style="fill:#0B5FFF;opacity:0.30000000000000004"></path><rect x="140.78" y="96.56" width="5" height="1" style="fill:#0B5FFF"></rect><rect x="124.11" y="96.56" width="12.25" height="1" style="fill:#0B5FFF"></rect><path d="M279.38,100.06H92.19A8.89,8.89,0,0,0,83.3,109h205A8.89,8.89,0,0,0,279.38,100.06Z" style="fill:#0B5FFF"></path><path d="M95.89,104.5a1.78,1.78,0,1,1-1.77-1.77A1.78,1.78,0,0,1,95.89,104.5Z" style="fill:#fff"></path><path d="M101.61,104.41a1.77,1.77,0,1,1-1.77-1.77A1.78,1.78,0,0,1,101.61,104.41Z" style="fill:#fff"></path><path d="M107.33,104.41a1.77,1.77,0,1,1-1.77-1.77A1.78,1.78,0,0,1,107.33,104.41Z" style="fill:#fff"></path><path d="M252.89,168.38h79a0,0,0,0,1,0,0V278.25a4,4,0,0,1-4,4H256.84a4,4,0,0,1-4-4V168.38A0,0,0,0,1,252.89,168.38Z" style="fill:#0B5FFF"></path><path d="M252.89,168.38h79a0,0,0,0,1,0,0V278.25a4,4,0,0,1-4,4H256.84a4,4,0,0,1-4-4V168.38A0,0,0,0,1,252.89,168.38Z" style="fill:#fff;opacity:0.8"></path><rect x="260.09" y="174.32" width="64.57" height="24.76" rx="1.96" style="fill:#fff;opacity:0.9"></rect><rect x="260.09" y="203.98" width="64.57" height="18.97" rx="3.56" style="fill:#0B5FFF;opacity:0.7000000000000001"></rect><rect x="260.09" y="229.23" width="64.57" height="18.97" rx="3.56" style="fill:#0B5FFF;opacity:0.7000000000000001"></rect><rect x="260.09" y="254.48" width="64.57" height="18.97" rx="3.56" style="fill:#0B5FFF;opacity:0.7000000000000001"></rect><path d="M258.08,157.2h68.58a5.2,5.2,0,0,1,5.2,5.2v6a0,0,0,0,1,0,0h-79a0,0,0,0,1,0,0v-6A5.2,5.2,0,0,1,258.08,157.2Z" style="fill:#0B5FFF"></path></g><g id="freepik--Character--inject-2"><polygon points="363.12 410.23 355.8 410.23 355.81 393.26 363.14 393.26 363.12 410.23" style="fill:#ffb573"></polygon><polygon points="421.98 396.22 414.97 398.34 407.25 382.95 414.26 380.83 421.98 396.22" style="fill:#ffb573"></polygon><path d="M412.26,399.61a2.21,2.21,0,0,1-1.45.05,1,1,0,0,1-.57-.79.58.58,0,0,1,.17-.56c.66-.63,3.29.09,3.59.17a.19.19,0,0,1,.12.15.19.19,0,0,1-.09.17A8.56,8.56,0,0,1,412.26,399.61Zm-1.42-1.15a.42.42,0,0,0-.21.11.21.21,0,0,0-.05.22.68.68,0,0,0,.38.55,3.47,3.47,0,0,0,2.52-.63A6.8,6.8,0,0,0,410.84,398.46Z" style="fill:#0B5FFF"></path><path d="M414,398.82h-.09c-.82-.18-2.62-1.31-2.68-2.15a.6.6,0,0,1,.42-.6.88.88,0,0,1,.76,0c1,.42,1.68,2.42,1.71,2.51a.2.2,0,0,1,0,.18Zm-2.15-2.45a.13.13,0,0,0-.08,0c-.2.09-.2.19-.2.24,0,.49,1.23,1.4,2.09,1.74-.23-.58-.76-1.71-1.39-2A.61.61,0,0,0,411.84,396.37Z" style="fill:#0B5FFF"></path><path d="M414.26,397.67l7.88-2.38a.61.61,0,0,1,.72.3l3,5.9a1.14,1.14,0,0,1-.7,1.58c-2.76.78-4.14,1-7.61,2.07-2.13.64-9,4.1-11.9,5s-4.08-1.94-2.94-2.58c5.09-2.83,9.2-7,10.53-9.1A1.86,1.86,0,0,1,414.26,397.67Z" style="fill:#263238"></path><path d="M352.78,410.66a2.66,2.66,0,0,1-1.76-.45.91.91,0,0,1-.29-.84.55.55,0,0,1,.31-.46c.91-.5,3.79,1,4.11,1.17a.16.16,0,0,1,.09.18.18.18,0,0,1-.15.14A12,12,0,0,1,352.78,410.66Zm-1.26-1.51a.75.75,0,0,0-.33.06.26.26,0,0,0-.12.19.66.66,0,0,0,.19.56c.43.4,1.64.46,3.26.19A9.22,9.22,0,0,0,351.52,409.15Z" style="fill:#0B5FFF"></path><path d="M355.06,410.41l-.07,0c-.87-.4-2.55-2-2.38-2.81,0-.19.19-.44.67-.48a1.19,1.19,0,0,1,1,.29c.89.77,1,2.74,1,2.83a.18.18,0,0,1-.08.15A.21.21,0,0,1,355.06,410.41Zm-1.66-3h-.1c-.32,0-.34.16-.35.2-.1.49,1,1.74,1.91,2.28a3.9,3.9,0,0,0-.87-2.26A.87.87,0,0,0,353.4,407.44Z" style="fill:#0B5FFF"></path><path d="M355.88,409.38h8a.6.6,0,0,1,.6.5l1.16,6.52a1.11,1.11,0,0,1-1.11,1.3c-2.88-.05-7-.22-10.67-.22-4.24,0-7.92.23-12.89.23-3,0-3.71-3-2.44-3.31,5.79-1.26,10.47-1.39,15.56-4.45A3.54,3.54,0,0,1,355.88,409.38Z" style="fill:#263238"></path><path d="M381.94,142.92c-1.29,5.36-2.1,12,1.49,15.58,0,0-2.39,5.44-12.35,5.44-9.1,0-4.31-5.44-4.31-5.44,6-1.42,6.05-8.82,5.2-13Z" style="fill:#ffb573"></path><polygon points="355.81 393.27 355.8 402.01 363.13 402.01 363.14 393.27 355.81 393.27" style="opacity:0.2"></polygon><polygon points="414.26 380.83 407.25 382.96 411.23 390.89 418.25 388.77 414.26 380.83" style="opacity:0.2"></polygon><path d="M398.08,165.2l-9.4,5.4s9.86,23,8.89,26.72c-1.33,5-2,15.21-4.05,21.84.81.91,3.55,2.54,4.65,2.5,4-8,10.52-21.65,10.14-26.28C407.45,184.8,398.08,165.2,398.08,165.2Z" style="fill:#ffb573"></path><path d="M393.52,219.16l-6.44,2.66,6.46,5.37s5.56-2.51,4.54-7.23Z" style="fill:#ffb573"></path><polygon points="383.48 227.58 389.57 232.15 393.54 227.19 387.08 221.82 383.48 227.58" style="fill:#ffb573"></polygon><path d="M396.48,160.16c6.82,1.39,12.36,25.75,12.36,25.75l-15.36,7.39s-5.26-11.74-7.58-20.36C383.48,163.9,389.16,158.67,396.48,160.16Z" style="fill:#0B5FFF"></path><path d="M391,168.54c-2.86-3-1.56,8.94-.84,16.88.61,1.58,1.2,3,1.71,4.21C396,183.65,395,172.74,391,168.54Z" style="opacity:0.2"></path><path d="M367,160.72c0-2.6-.38-3.83.33-4.79s14.79-2.1,17.22-1c.83.37,1.31,4.11.27,5.78C383.3,163.13,367,160.72,367,160.72Z" style="fill:#0B5FFF"></path><path d="M367,160.72c0-2.6-.38-3.83.33-4.79s14.79-2.1,17.22-1c.83.37,1.31,4.11.27,5.78C383.3,163.13,367,160.72,367,160.72Z" style="opacity:0.2"></path><path d="M355.41,160.54s-9.62,22.12-3.22,63.32h39.19c.53-6-2-35.36,5.1-63.7a100.48,100.48,0,0,0-13.05-1.66,144.58,144.58,0,0,0-16.66,0A74.87,74.87,0,0,0,355.41,160.54Z" style="fill:#0B5FFF"></path><path d="M361,170.82l-9.71-3.91s-13.12,22.28-15.86,24.15c-6.35-3.48-8.48-2.07-13.42-5.72-1.25.13-3.2,1.87-3.86,2.76,4,7.7,17.29,17.23,23.86,11.42C350.14,192.33,361,170.82,361,170.82Z" style="fill:#ffb573"></path><path d="M362.22,168.18c-1.46-3.76-4.52-5.33-7.83-4.78-1.46,4.61-4,14.74-4.36,30l3.8.86S364.73,174.61,362.22,168.18Z" style="opacity:0.2"></path><path d="M363.89,165.55c2.18,6.56-11.18,25.86-11.18,25.86l-14.3-8a94.2,94.2,0,0,1,9.22-17.15C353.16,158.57,361.5,158.36,363.89,165.55Z" style="fill:#0B5FFF"></path><path d="M322.25,185.55l-6.53-3.77-3.82,7.6a25.71,25.71,0,0,0,8.18,1.29Z" style="fill:#ffb573"></path><polygon points="312.5 181.78 307.83 186.22 311.9 189.38 315.72 181.78 312.5 181.78" style="fill:#ffb573"></polygon><path d="M365.7,135.21c-.06.59-.42,1-.8,1s-.65-.52-.59-1.11.42-1,.81-1S365.76,134.62,365.7,135.21Z" style="fill:#263238"></path><path d="M366.22,135.26a22.21,22.21,0,0,1-3.32,4.88,3.3,3.3,0,0,0,2.76.69Z" style="fill:#ed893e"></path><path d="M365,133.17l-.15-.06a.34.34,0,0,1-.08-.48A3.67,3.67,0,0,1,367.6,131a.34.34,0,0,1,.33.35.37.37,0,0,1-.36.35h0a2.88,2.88,0,0,0-2.19,1.32A.37.37,0,0,1,365,133.17Z" style="fill:#263238"></path><path d="M385.61,134.7c-1.19,7.22-1.51,11.49-5.54,15a9.39,9.39,0,0,1-15.63-5.89c-.89-6.6,1.19-17.29,8.56-19.77A9.5,9.5,0,0,1,385.61,134.7Z" style="fill:#ffb573"></path><path d="M370.56,137.81c-1.5-4.75-3.45-12.09,1.88-14.81s9.53,1.06,15.34,4.56c6.55,3.94,2.55,16.44-5.35,19.38C375.8,149.41,369.33,144.45,370.56,137.81Z" style="fill:#263238"></path><path d="M371.14,129c-4.7,1.27-7.94-1.75-5.62-5.23,2.94-4.43,14.5-3.27,18.83,1.52S374.4,132.37,371.14,129Z" style="fill:#263238"></path><path d="M372.93,125.5c-5.74-1.06-8.09-5.74-3.28-8.64,4.54-2.73,17.3,2,19.43,9.54S374.67,130.85,372.93,125.5Z" style="fill:#263238"></path><path d="M388.23,129.09c.87-.7,4.33-1.7,4.72,2.17A7.45,7.45,0,0,0,388.23,129.09Z" style="fill:#263238"></path><path d="M390.71,124.27c.69.88,1.67,4.34-2.21,4.71A7.5,7.5,0,0,0,390.71,124.27Z" style="fill:#263238"></path><path d="M374.69,137.48a6.46,6.46,0,0,1-3.07,3.64c-1.92,1-3.25-.58-3-2.62.21-1.83,1.46-4.57,3.53-4.73S375.32,135.57,374.69,137.48Z" style="fill:#ffb573"></path><path d="M366.09,223.86s5.85,56,9.49,77c4,23,32,89.4,32,89.4l12.85-3.88s-20-61.05-21.89-83.79c-2-24.69-7.12-78.7-7.12-78.7Z" style="fill:#263238"></path><path d="M375.1,243.44c-.58-.88-1.13-1.18-1.66-1l-.1,0a1.32,1.32,0,0,0-.34.2,2.69,2.69,0,0,0-.3.29c-.06.06-.11.13-.17.2s-.15.21-.23.33a8.47,8.47,0,0,0-.49.91c-.08.19-.17.39-.25.59s-.2.51-.3.79-.26.76-.38,1.17c0,.11-.07.21-.1.32s-.13.46-.2.69l-.15.6c-.11.4-.21.8-.31,1.22s-.2.91-.3,1.38c0,.16-.07.33-.11.49-.12.6-.24,1.22-.36,1.84h0c1.61,13.94,3.54,29.92,5.22,41.07.12-.36.24-.74.36-1.15a54.73,54.73,0,0,0,1.25-5.64C378.67,273.37,378.86,249.17,375.1,243.44Z" style="opacity:0.2"></path><path d="M352.19,223.86s-3.42,54.78-3.61,77.13c-.2,23.24,4.57,99.33,4.57,99.33h12.41s3.75-74.73,5.31-97.56c1.69-24.88,7.08-78.9,7.08-78.9Z" style="fill:#263238"></path><path d="M366.55,396.52c.05,0-.18,4.05-.18,4.05H352.06l-.4-4.55Z" style="fill:#0B5FFF"></path><path d="M419.41,381.82c.32.63,1.68,4.58,1.68,4.58L407,390.67l-2.31-3.8Z" style="fill:#0B5FFF"></path></g></svg>